# xmcd
#
# Track frame offsets: 
#        150
#        21688
#        49465
#        69217
#        90082
#        114716
#        135723
#        153617
#        168972
#        186319
#        218774
#        239958
#        258278
#
# Disc length: 3740 seconds
#
# Revision: 0
# Processed by: cddbd v1.5.2PL0 Copyright (c) Steve Scherf et al.
# Submitted via: ExactAudioCopy v1.0b2
#
DISCID=be0e9a0d
DTITLE=Evan Goodrow Band - Say It
DYEAR=2011
DGENRE=Blues
TTITLE0=I Don't Wanna Know
TTITLE1=Middle St.
TTITLE2=And You're Gone
TTITLE3=Let Me
TTITLE4=Lover
TTITLE5=What Happens
TTITLE6=Can't Wait
TTITLE7=Regrets
TTITLE8=Help Me Up
TTITLE9=Don't Lie To Me
TTITLE10=Singasong
TTITLE11=Way Back Home
TTITLE12=You're On My Mind
EXTD=
EXTT0=
EXTT1=
EXTT2=
EXTT3=
EXTT4=
EXTT5=
EXTT6=
EXTT7=
EXTT8=
EXTT9=
EXTT10=
EXTT11=
EXTT12=
PLAYORDER=
